<svg xmlns="http://www.w3.org/2000/svg" viewBox="0 0 64 64">
  <circle cx="32" cy="32" r="31" fill="#17231d" />
  <circle cx="32" cy="32" r="27" fill="#f2c14e" />
  <circle
    cx="32"
    cy="32"
    r="24"
    fill="none"
    stroke="#17231d"
    stroke-width="6"
    stroke-dasharray="7 4"
  />
  <circle cx="32" cy="32" r="16" fill="#f2c14e" stroke="#17231d" stroke-width="2" />
  <path
    fill="#17231d"
    d="M32 18c-5.7 7.4-11.7 11-11.7 17.9 0 5.1 3.7 8.4 8.2 8.4 1.7 0 3-.6 3.9-1.7-.6 2.8-2 4.4-4.8 5.7h8.8c-2.8-1.3-4.3-2.9-4.8-5.7.9 1.1 2.2 1.7 3.9 1.7 4.5 0 8.2-3.3 8.2-8.4C43.7 29 37.7 25.4 32 18Z"
  />
</svg>
